<svg xmlns="http://www.w3.org/2000/svg" xmlns:xlink="http://www.w3.org/1999/xlink" width="500" zoomAndPan="magnify" viewBox="0 0 375 374.999991" height="500" preserveAspectRatio="xMidYMid meet" version="1.0"><defs><clipPath id="9eaed03c53"><path d="M 1 0.5 L 125.769531 0.5 L 125.769531 297.800781 L 1 297.800781 Z M 1 0.5 " clip-rule="nonzero"/></clipPath><clipPath id="b6c821a5d4"><path d="M 165.496094 0.5 L 286.617188 0.5 L 286.617188 300.679688 L 165.496094 300.679688 Z M 165.496094 0.5 " clip-rule="nonzero"/></clipPath><clipPath id="9635c8c0cd"><path d="M 209 168.226562 L 240 168.226562 L 240 227 L 209 227 Z M 209 168.226562 " clip-rule="nonzero"/></clipPath><clipPath id="1abb711587"><path d="M 125 248 L 143 248 L 143 267.328125 L 125 267.328125 Z M 125 248 " clip-rule="nonzero"/></clipPath><clipPath id="cfd6423604"><path d="M 50.113281 170 L 80 170 L 80 229 L 50.113281 229 Z M 50.113281 170 " clip-rule="nonzero"/></clipPath><clipPath id="60f91271af"><rect x="0" width="288" y="0" height="301"/></clipPath></defs><g transform="matrix(1, 0, 0, 1, 43, 37)"><g clip-path="url(#60f91271af)"><g clip-path="url(#9eaed03c53)"><path fill="#d9d9d9" d="M 249.074219 222.0625 L 249.074219 253.734375 C 249.074219 279.492188 228.117188 300.445312 202.363281 300.445312 L 47.738281 300.445312 C 21.980469 300.445312 1.023438 279.492188 1.023438 253.734375 L 1.023438 222.0625 C 1.023438 184.769531 19.929688 150.804688 51.59375 131.195312 L 62.425781 148.695312 C 36.867188 164.523438 21.605469 191.949219 21.605469 222.0625 L 21.605469 253.734375 C 21.605469 268.144531 33.328125 279.867188 47.738281 279.867188 L 202.363281 279.867188 C 216.773438 279.867188 228.496094 268.144531 228.496094 253.734375 L 228.496094 222.0625 C 228.496094 192.011719 213.246094 164.578125 187.707031 148.679688 L 198.582031 131.210938 C 230.199219 150.890625 249.074219 184.851562 249.074219 222.0625 Z M 52.671875 72.886719 C 52.671875 32.972656 85.144531 0.5 125.054688 0.5 C 164.96875 0.5 197.441406 32.972656 197.441406 72.886719 C 197.441406 112.800781 164.96875 145.273438 125.054688 145.273438 C 85.140625 145.273438 52.671875 112.800781 52.671875 72.886719 Z M 73.25 72.886719 C 73.25 101.453125 96.492188 124.695312 125.054688 124.695312 C 153.621094 124.695312 176.863281 101.453125 176.863281 72.886719 C 176.863281 44.320312 153.625 21.078125 125.054688 21.078125 C 96.488281 21.078125 73.25 44.320312 73.25 72.886719 Z M 73.25 72.886719 " fill-opacity="1" fill-rule="nonzero"/></g><g clip-path="url(#b6c821a5d4)"><path fill="#d9d9d9" d="M 287.9375 222.0625 L 287.9375 253.734375 C 287.9375 279.492188 266.980469 300.445312 241.222656 300.445312 L 86.601562 300.445312 C 60.84375 300.445312 39.886719 279.492188 39.886719 253.734375 L 39.886719 222.0625 C 39.886719 184.769531 58.789062 150.804688 90.457031 131.195312 L 101.289062 148.695312 C 75.726562 164.523438 60.464844 191.949219 60.464844 222.0625 L 60.464844 253.734375 C 60.464844 268.144531 72.191406 279.867188 86.601562 279.867188 L 241.222656 279.867188 C 255.632812 279.867188 267.359375 268.144531 267.359375 253.734375 L 267.359375 222.0625 C 267.359375 192.011719 252.109375 164.578125 226.570312 148.679688 L 237.441406 131.210938 C 269.0625 150.890625 287.9375 184.851562 287.9375 222.0625 Z M 91.535156 72.886719 C 91.535156 32.972656 124.003906 0.5 163.917969 0.5 C 203.832031 0.5 236.304688 32.972656 236.304688 72.886719 C 236.304688 112.800781 203.832031 145.273438 163.917969 145.273438 C 124.003906 145.273438 91.535156 112.800781 91.535156 72.886719 Z M 112.113281 72.886719 C 112.113281 101.453125 135.351562 124.695312 163.917969 124.695312 C 192.484375 124.695312 215.726562 101.453125 215.726562 72.886719 C 215.726562 44.320312 192.484375 21.078125 163.917969 21.078125 C 135.351562 21.078125 112.113281 44.320312 112.113281 72.886719 Z M 112.113281 72.886719 " fill-opacity="1" fill-rule="nonzero"/></g><path fill="#d9d9d9" d="M 164.730469 258.320312 L 143.976562 245.210938 C 143.929688 245.175781 143.890625 245.132812 143.847656 245.097656 C 141.632812 243.375 138.96875 242.550781 136.210938 242.882812 C 136.046875 242.902344 135.894531 242.9375 135.738281 242.964844 C 135.519531 240.070312 134.203125 237.269531 131.847656 235.347656 C 129.679688 233.574219 126.96875 232.792969 124.210938 233.132812 C 124.117188 233.148438 124.023438 233.167969 123.929688 233.183594 C 123.808594 230.15625 122.464844 227.191406 120.011719 225.1875 C 117.839844 223.414062 115.132812 222.632812 112.375 222.976562 C 109.585938 223.328125 107.105469 224.785156 105.40625 227.085938 L 104.320312 228.5625 C 104.046875 228.933594 103.484375 228.882812 103.277344 228.472656 C 102.625 227.214844 101.730469 226.078125 100.585938 225.148438 C 98.417969 223.378906 95.703125 222.589844 92.953125 222.933594 C 90.160156 223.285156 87.6875 224.746094 85.984375 227.046875 L 82.414062 231.871094 L 81.546875 231.992188 C 79.269531 230.253906 76.929688 228.488281 74.199219 227.289062 C 73.757812 227.097656 73.519531 226.617188 73.636719 226.152344 L 84.671875 180.890625 C 84.734375 180.636719 84.894531 180.417969 85.121094 180.28125 C 85.34375 180.140625 85.613281 180.105469 85.867188 180.164062 C 90.5625 181.316406 96.203125 181.964844 102.089844 181.964844 C 110.527344 181.964844 119.457031 180.632812 126.738281 177.519531 C 134.234375 174.3125 138.421875 172.71875 142.652344 172.488281 C 143.308594 172.453125 143.566406 173.308594 143 173.636719 C 136.398438 177.449219 129.15625 182.90625 126.503906 188.6875 C 126.492188 188.710938 126.480469 188.742188 126.464844 188.769531 C 126.464844 188.773438 126.460938 188.785156 126.453125 188.789062 C 126.441406 188.8125 126.433594 188.84375 126.421875 188.871094 C 126.402344 188.917969 126.386719 188.957031 126.371094 189.007812 L 119.902344 207.53125 C 119.296875 209.273438 119.414062 211.21875 120.238281 212.863281 C 121.042969 214.484375 122.417969 215.675781 124.113281 216.21875 C 127.875 217.421875 135.09375 218.296875 141.144531 210.59375 C 141.167969 210.5625 141.195312 210.53125 141.21875 210.496094 C 143.847656 206.835938 145.746094 203.671875 146.886719 201.78125 C 147.042969 201.515625 147.191406 201.269531 147.324219 201.050781 C 147.429688 200.882812 147.605469 200.777344 147.796875 200.757812 L 154.660156 200.175781 C 154.894531 200.15625 155.128906 200.222656 155.335938 200.375 L 194.203125 228.125 L 195.863281 229.308594 C 202.1875 234.019531 194.40625 242.921875 188.046875 238.109375 C 187.523438 237.742188 185.292969 236.195312 184.730469 235.792969 C 175.726562 229.53125 162.066406 219.992188 161.875 219.859375 C 160.636719 219.011719 158.953125 219.304688 158.097656 220.53125 C 157.238281 221.761719 157.53125 223.472656 158.769531 224.308594 C 158.953125 224.433594 172.089844 233.613281 181.101562 239.878906 C 181.667969 240.28125 182.21875 240.664062 182.753906 241.035156 C 187.3125 244.472656 181.34375 252.519531 175.863281 248.796875 L 174.21875 247.640625 L 152.757812 232.542969 C 151.535156 231.679688 149.84375 231.980469 148.980469 233.203125 C 148.121094 234.425781 148.414062 236.121094 149.640625 236.980469 L 170.597656 251.730469 C 175.113281 254.9375 169.859375 261.574219 164.746094 258.316406 Z M 164.730469 258.320312 " fill-opacity="1" fill-rule="nonzero"/><path fill="#d9d9d9" d="M 155.152344 263.984375 C 155.84375 263.035156 156.113281 261.890625 155.90625 260.75 C 155.691406 259.582031 155.011719 258.570312 153.980469 257.894531 L 147.164062 253.410156 C 147.1875 255.625 146.53125 257.855469 145.144531 259.734375 L 143.566406 261.871094 L 149.171875 265.554688 C 151.25 266.429688 153.828125 265.804688 155.15625 263.984375 Z M 155.152344 263.984375 " fill-opacity="1" fill-rule="nonzero"/><g clip-path="url(#9635c8c0cd)"><path fill="#d9d9d9" d="M 226.570312 169.101562 L 239.339844 222.074219 C 239.449219 222.535156 239.167969 222.996094 238.707031 223.105469 L 225.273438 226.34375 C 223.617188 226.742188 221.949219 225.722656 221.550781 224.066406 L 209.832031 175.433594 C 209.433594 173.777344 210.453125 172.109375 212.109375 171.710938 L 225.539062 168.472656 C 226 168.359375 226.460938 168.644531 226.574219 169.101562 Z M 226.570312 169.101562 " fill-opacity="1" fill-rule="nonzero"/></g><path fill="#d9d9d9" d="M 97.042969 229.320312 C 96.1875 228.621094 95.160156 228.253906 94.089844 228.253906 C 93.898438 228.253906 93.707031 228.265625 93.511719 228.292969 C 92.207031 228.457031 91.042969 229.148438 90.230469 230.246094 L 83.800781 238.9375 C 82.097656 241.238281 82.5 244.691406 84.679688 246.476562 C 85.6875 247.300781 86.941406 247.667969 88.210938 247.507812 C 89.511719 247.34375 90.675781 246.652344 91.488281 245.554688 L 97.917969 236.863281 C 99.621094 234.558594 99.21875 231.109375 97.039062 229.324219 Z M 97.042969 229.320312 " fill-opacity="1" fill-rule="nonzero"/><path fill="#d9d9d9" d="M 177.476562 175.679688 C 169.375 173.996094 161.730469 172.40625 155.683594 173.636719 C 151.875 174.417969 134.910156 183.105469 131.324219 190.90625 L 124.90625 209.292969 C 124.730469 209.796875 124.871094 210.214844 124.976562 210.414062 C 125.0625 210.585938 125.265625 210.898438 125.652344 211.023438 C 129.9375 212.398438 133.660156 211.132812 136.726562 207.257812 C 139.210938 203.792969 141.027344 200.769531 142.117188 198.957031 C 142.554688 198.226562 142.875 197.695312 143.113281 197.34375 C 143.867188 196.21875 145.066406 195.511719 146.402344 195.398438 L 154.082031 194.746094 C 155.601562 194.617188 157.128906 195.039062 158.378906 195.941406 L 198.992188 224.945312 C 199.046875 224.980469 199.101562 225.023438 199.152344 225.066406 C 200.316406 226.03125 201.214844 227.058594 201.921875 228.058594 C 202.273438 228.554688 202.835938 228.867188 203.441406 228.890625 C 208.023438 229.105469 210.65625 227.828125 214.65625 225.878906 C 214.972656 225.726562 215.300781 225.566406 215.640625 225.402344 C 216.0625 225.199219 216.277344 224.734375 216.167969 224.277344 L 204.953125 178.289062 C 204.824219 177.761719 204.292969 177.4375 203.761719 177.5625 C 195.785156 179.496094 186.5 177.566406 177.476562 175.6875 Z M 177.476562 175.679688 " fill-opacity="1" fill-rule="nonzero"/><path fill="#d9d9d9" d="M 129.566406 246.429688 C 130.792969 244.160156 130.292969 241.144531 128.296875 239.515625 C 127.441406 238.816406 126.414062 238.453125 125.351562 238.453125 C 125.160156 238.453125 124.964844 238.464844 124.769531 238.488281 C 123.46875 238.652344 122.300781 239.34375 121.488281 240.441406 L 111.257812 254.277344 C 109.554688 256.582031 109.957031 260.03125 112.136719 261.816406 C 113.144531 262.640625 114.398438 263.003906 115.664062 262.847656 C 116.96875 262.683594 118.132812 261.992188 118.945312 260.894531 L 121.40625 257.574219 C 121.621094 257.1875 121.851562 256.8125 122.117188 256.449219 L 129.132812 246.96875 C 129.269531 246.78125 129.421875 246.609375 129.570312 246.433594 Z M 129.566406 246.429688 " fill-opacity="1" fill-rule="nonzero"/><path fill="#d9d9d9" d="M 116.46875 229.363281 C 115.613281 228.664062 114.585938 228.296875 113.515625 228.296875 C 113.324219 228.296875 113.128906 228.308594 112.933594 228.335938 C 111.632812 228.5 110.46875 229.191406 109.652344 230.285156 L 95.988281 248.765625 C 94.285156 251.070312 94.6875 254.523438 96.867188 256.304688 C 97.875 257.128906 99.128906 257.496094 100.394531 257.335938 C 101.699219 257.171875 102.863281 256.480469 103.675781 255.386719 L 117.339844 236.90625 C 119.042969 234.601562 118.644531 231.148438 116.464844 229.367188 Z M 116.46875 229.363281 " fill-opacity="1" fill-rule="nonzero"/><g clip-path="url(#1abb711587)"><path fill="#d9d9d9" d="M 140.300781 249.265625 C 139.445312 248.570312 138.417969 248.203125 137.347656 248.203125 C 137.160156 248.203125 136.964844 248.214844 136.769531 248.234375 C 135.695312 248.371094 134.722656 248.871094 133.957031 249.648438 C 133.824219 249.863281 133.691406 250.074219 133.539062 250.277344 L 125.984375 260.496094 C 124.890625 262.738281 125.421875 265.628906 127.355469 267.210938 C 128.363281 268.035156 129.617188 268.398438 130.882812 268.242188 C 132.1875 268.074219 133.351562 267.386719 134.160156 266.289062 L 141.171875 256.804688 C 142.875 254.503906 142.476562 251.050781 140.292969 249.265625 Z M 140.300781 249.265625 " fill-opacity="1" fill-rule="nonzero"/></g><g clip-path="url(#cfd6423604)"><path fill="#d9d9d9" d="M 79.835938 177.101562 L 68.113281 225.734375 C 67.714844 227.390625 66.046875 228.410156 64.390625 228.011719 L 50.957031 224.773438 C 50.496094 224.664062 50.214844 224.203125 50.328125 223.742188 L 63.09375 170.769531 C 63.203125 170.308594 63.664062 170.027344 64.125 170.136719 L 77.558594 173.375 C 79.214844 173.773438 80.234375 175.441406 79.835938 177.097656 Z M 79.835938 177.101562 " fill-opacity="1" fill-rule="nonzero"/></g></g></g></svg>