<svg xmlns="http://www.w3.org/2000/svg" xmlns:xlink="http://www.w3.org/1999/xlink" width="500" zoomAndPan="magnify" viewBox="0 0 375 374.999991" height="500" preserveAspectRatio="xMidYMid meet" version="1.0"><defs><clipPath id="7365d6a0cc"><path d="M 44 37.5 L 167.726562 37.5 L 167.726562 334.5 L 44 334.5 Z M 44 37.5 " clip-rule="nonzero"/></clipPath><clipPath id="751d9f5fe4"><path d="M 208.496094 37.5 L 330.746094 37.5 L 330.746094 337.5 L 208.496094 337.5 Z M 208.496094 37.5 " clip-rule="nonzero"/></clipPath><clipPath id="640a6a4ad3"><path d="M 187 192 L 282 192 L 282 293 L 187 293 Z M 187 192 " clip-rule="nonzero"/></clipPath><clipPath id="e8dd6577f1"><path d="M 264.605469 192.53125 L 281.191406 207.40625 L 204.496094 292.914062 L 187.910156 278.039062 Z M 264.605469 192.53125 " clip-rule="nonzero"/></clipPath><clipPath id="02c326b406"><path d="M 0.679688 0.480469 L 94.28125 0.480469 L 94.28125 101 L 0.679688 101 Z M 0.679688 0.480469 " clip-rule="nonzero"/></clipPath><clipPath id="68b6c25a23"><path d="M 77.605469 0.53125 L 94.191406 15.40625 L 17.496094 100.914062 L 0.910156 86.039062 Z M 77.605469 0.53125 " clip-rule="nonzero"/></clipPath><clipPath id="2d755d5712"><rect x="0" width="95" y="0" height="101"/></clipPath><clipPath id="827d16c987"><path d="M 93 192 L 188 192 L 188 293 L 93 293 Z M 93 192 " clip-rule="nonzero"/></clipPath><clipPath id="2b10b64d87"><path d="M 93.804688 207.734375 L 110.316406 192.773438 L 187.5 277.953125 L 170.988281 292.914062 Z M 93.804688 207.734375 " clip-rule="nonzero"/></clipPath><clipPath id="09f41b38e3"><path d="M 0.601562 0.71875 L 94.679688 0.71875 L 94.679688 101 L 0.601562 101 Z M 0.601562 0.71875 " clip-rule="nonzero"/></clipPath><clipPath id="dd11f7af5e"><path d="M 0.804688 15.734375 L 17.316406 0.773438 L 94.5 85.953125 L 77.988281 100.914062 Z M 0.804688 15.734375 " clip-rule="nonzero"/></clipPath><clipPath id="dfcdc4c27c"><rect x="0" width="95" y="0" height="101"/></clipPath></defs><g clip-path="url(#7365d6a0cc)"><path fill="#8c52ff" d="M 292.089844 259.066406 L 292.089844 290.738281 C 292.089844 316.496094 271.132812 337.449219 245.375 337.449219 L 90.75 337.449219 C 64.992188 337.449219 44.035156 316.496094 44.035156 290.738281 L 44.035156 259.066406 C 44.035156 221.773438 62.941406 187.804688 94.605469 168.199219 L 105.441406 185.699219 C 79.878906 201.527344 64.617188 228.953125 64.617188 259.066406 L 64.617188 290.738281 C 64.617188 305.148438 76.339844 316.871094 90.75 316.871094 L 245.375 316.871094 C 259.785156 316.871094 271.511719 305.148438 271.511719 290.738281 L 271.511719 259.066406 C 271.511719 229.011719 256.261719 201.582031 230.722656 185.683594 L 241.597656 168.214844 C 273.214844 187.890625 292.089844 221.855469 292.089844 259.066406 Z M 95.683594 109.886719 C 95.683594 69.972656 128.15625 37.5 168.070312 37.5 C 207.984375 37.5 240.457031 69.972656 240.457031 109.886719 C 240.457031 149.800781 207.984375 182.273438 168.070312 182.273438 C 128.15625 182.273438 95.683594 149.800781 95.683594 109.886719 Z M 116.265625 109.886719 C 116.265625 138.457031 139.503906 161.695312 168.070312 161.695312 C 196.636719 161.695312 219.878906 138.457031 219.878906 109.886719 C 219.878906 81.320312 196.636719 58.078125 168.070312 58.078125 C 139.503906 58.078125 116.265625 81.320312 116.265625 109.886719 Z M 116.265625 109.886719 " fill-opacity="1" fill-rule="nonzero"/></g><g clip-path="url(#751d9f5fe4)"><path fill="#d9d9d9" d="M 330.953125 259.066406 L 330.953125 290.738281 C 330.953125 316.496094 309.996094 337.449219 284.238281 337.449219 L 129.613281 337.449219 C 103.855469 337.449219 82.898438 316.496094 82.898438 290.738281 L 82.898438 259.066406 C 82.898438 221.773438 101.800781 187.804688 133.46875 168.199219 L 144.300781 185.699219 C 118.742188 201.527344 103.480469 228.953125 103.480469 259.066406 L 103.480469 290.738281 C 103.480469 305.148438 115.203125 316.871094 129.613281 316.871094 L 284.238281 316.871094 C 298.648438 316.871094 310.371094 305.148438 310.371094 290.738281 L 310.371094 259.066406 C 310.371094 229.011719 295.125 201.582031 269.585938 185.683594 L 280.457031 168.214844 C 312.074219 187.890625 330.953125 221.855469 330.953125 259.066406 Z M 134.546875 109.886719 C 134.546875 69.972656 167.019531 37.5 206.933594 37.5 C 246.847656 37.5 279.320312 69.972656 279.320312 109.886719 C 279.320312 149.800781 246.847656 182.273438 206.933594 182.273438 C 167.015625 182.273438 134.546875 149.800781 134.546875 109.886719 Z M 155.125 109.886719 C 155.125 138.457031 178.367188 161.695312 206.933594 161.695312 C 235.496094 161.695312 258.742188 138.457031 258.742188 109.886719 C 258.742188 81.320312 235.5 58.078125 206.933594 58.078125 C 178.363281 58.078125 155.125 81.320312 155.125 109.886719 Z M 155.125 109.886719 " fill-opacity="1" fill-rule="nonzero"/></g><g clip-path="url(#640a6a4ad3)"><g clip-path="url(#e8dd6577f1)"><g transform="matrix(1, 0, 0, 1, 187, 192)"><g clip-path="url(#2d755d5712)"><g clip-path="url(#02c326b406)"><g clip-path="url(#68b6c25a23)"><path fill="#d9d9d9" d="M 77.605469 0.53125 L 94.191406 15.40625 L 17.480469 100.929688 L 0.894531 86.050781 Z M 77.605469 0.53125 " fill-opacity="1" fill-rule="nonzero"/></g></g></g></g></g></g><g clip-path="url(#827d16c987)"><g clip-path="url(#2b10b64d87)"><g transform="matrix(1, 0, 0, 1, 93, 192)"><g clip-path="url(#dfcdc4c27c)"><g clip-path="url(#09f41b38e3)"><g clip-path="url(#dd11f7af5e)"><path fill="#8c52ff" d="M 0.804688 15.734375 L 17.316406 0.773438 L 94.515625 85.96875 L 78.003906 100.929688 Z M 0.804688 15.734375 " fill-opacity="1" fill-rule="nonzero"/></g></g></g></g></g></g></svg>